# xmcd
#
# Track frame offsets: 
#        150
#        14123
#        31079
#        51539
#        64462
#        78022
#        88892
#        106103
#        116378
#        133138
#        145125
#        160492
#        172245
#        189298
#        203831
#        214585
#        230058
#        242713
#        253515
#        267917
#        281567
#        323114
#        334812
#
# Disc length: 4618 seconds
#
# Revision: 0
# Processed by: cddbd v1.5.2PL0 Copyright (c) Steve Scherf et al.
# Submitted via: ExactAudioCopy v0.95b3
#
DISCID=59120817
DTITLE=The Box Tops  - Yesterday Where's My Mind  FLAC
DYEAR=1900
DGENRE=
TTITLE0=She Knows How
TTITLE1=Trains and Boats and Planes
TTITLE2=A Whiter Shade Of Pale
TTITLE3=I'm Your Puppet
TTITLE4=Gonna Find Somebody
TTITLE5=I Pray For Rain
TTITLE6=Georgia Farm Boy
TTITLE7=727
TTITLE8=You Keep Me Hanging On
TTITLE9=The Door You Closed To Me
TTITLE10=Come On Honey
TTITLE11=Take Me To Your Heart
TTITLE12=Rock Me Baby
TTITLE13=Rollin' In My Sleep
TTITLE14=I Can Dig It
TTITLE15=Yesterday Where's My Mind
TTITLE16=Let Me Go
TTITLE17=Got To Hold On To You
TTITLE18=Since I Been Gone
TTITLE19=Ain't No Way
TTITLE20=Rock Me Baby
TTITLE21=King's Highway
TTITLE22=Lay Your Shine On Me
EXTD=
EXTT0=
EXTT1=
EXTT2=
EXTT3=
EXTT4=
EXTT5=
EXTT6=
EXTT7=
EXTT8=
EXTT9=
EXTT10=
EXTT11=
EXTT12=
EXTT13=
EXTT14=
EXTT15=
EXTT16=
EXTT17=
EXTT18=
EXTT19=
EXTT20=
EXTT21=
EXTT22=
PLAYORDER=
